<svg xmlns="http://www.w3.org/2000/svg" xmlns:xlink="http://www.w3.org/1999/xlink" xmlns:lucid="lucid" width="1339.22" height="257.74"><g transform="translate(6.467451179404435 -10.091656104372703)" lucid:page-tab-id="LzQt4BRjoeqv"><path d="M13.53 30.1h69.3v69.48h-69.3z" stroke="#6f7681" stroke-width="3" fill="#fff"/><use xlink:href="#a" transform="matrix(1,0,0,1,25.532548820595565,42.0916561043727) translate(0.1913580246913611 17.77777777777778)"/><use xlink:href="#b" transform="matrix(1,0,0,1,25.532548820595565,42.0916561043727) translate(2.0432098765432087 44.44444444444444)"/><use xlink:href="#c" transform="matrix(1,0,0,1,25.532548820595565,42.0916561043727) translate(20.561728395061728 44.44444444444444)"/><path d="M82.82 30.1h100.8v69.48H82.8z" stroke="#6f7681" stroke-width="3" fill="#54c45e"/><use xlink:href="#d" transform="matrix(1,0,0,1,94.82388740327272,42.0916561043727) translate(27.419753086419753 17.77777777777778)"/><use xlink:href="#e" transform="matrix(1,0,0,1,94.82388740327272,42.0916561043727) translate(3.9938271604938294 44.44444444444444)"/><use xlink:href="#f" transform="matrix(1,0,0,1,94.82388740327272,42.0916561043727) translate(33.623456790123456 44.44444444444444)"/><path d="M184.5 30.1h81.88v69.48h-81.9z" stroke="#6f7681" stroke-width="3" fill="#cfe4ff"/><use xlink:href="#g" transform="matrix(1,0,0,1,196.4879293980233,42.0916561043727) translate(-6.462962962962962 17.77777777777778)"/><use xlink:href="#h" transform="matrix(1,0,0,1,196.4879293980233,42.0916561043727) translate(8.043209876543209 44.44444444444444)"/><use xlink:href="#i" transform="matrix(1,0,0,1,196.4879293980233,42.0916561043727) translate(26.561728395061728 44.44444444444444)"/><path d="M266.38 30.1h82v69.48h-82z" stroke="#6f7681" stroke-width="3" fill="#cfe4ff"/><use xlink:href="#j" transform="matrix(1,0,0,1,278.377693177551,42.0916561043727) translate(-2.141975308641971 17.77777777777778)"/><use xlink:href="#h" transform="matrix(1,0,0,1,278.377693177551,42.0916561043727) translate(8.043209876543209 44.44444444444444)"/><use xlink:href="#i" transform="matrix(1,0,0,1,278.377693177551,42.0916561043727) translate(26.561728395061728 44.44444444444444)"/><path d="M613.03 30.1h69.3v69.48h-69.3z" stroke="#6f7681" stroke-width="3" fill="#fff"/><use xlink:href="#k" transform="matrix(1,0,0,1,625.0341180635814,42.0916561043727) translate(0.5000000000000036 17.77777777777778)"/><use xlink:href="#l" transform="matrix(1,0,0,1,625.0341180635814,42.0916561043727) translate(2.0432098765432087 44.44444444444444)"/><use xlink:href="#m" transform="matrix(1,0,0,1,625.0341180635814,42.0916561043727) translate(20.561728395061728 44.44444444444444)"/><path d="M682.33 30.1h81.74v69.48h-81.74z" stroke="#6f7681" stroke-width="3" fill="#fff7a1"/><use xlink:href="#n" transform="matrix(1,0,0,1,694.3254566462585,42.0916561043727) translate(6.839506172839506 17.77777777777778)"/><use xlink:href="#o" transform="matrix(1,0,0,1,694.3254566462585,42.0916561043727) translate(2.487654320987655 44.44444444444444)"/><use xlink:href="#p" transform="matrix(1,0,0,1,694.3254566462585,42.0916561043727) translate(21.006172839506174 44.44444444444444)"/><path d="M764.07 30.1H1080v69.48H764.08z" stroke="#6f7681" stroke-width="3" fill="#fcce14"/><use xlink:href="#q" transform="matrix(1,0,0,1,776.0678539739321,42.0916561043727) translate(121.98765432098766 17.77777777777778)"/><use xlink:href="#r" transform="matrix(1,0,0,1,776.0678539739321,42.0916561043727) translate(107.79012345679013 44.44444444444444)"/><use xlink:href="#s" transform="matrix(1,0,0,1,776.0678539739321,42.0916561043727) translate(126.30864197530865 44.44444444444444)"/><path d="M1080 30.1h94.2v69.48H1080z" stroke="#6f7681" stroke-width="3" fill="#fff"/><use xlink:href="#t" transform="matrix(1,0,0,1,1092.0087372194018,42.0916561043727) translate(11.518518518518519 17.77777777777778)"/><use xlink:href="#u" transform="matrix(1,0,0,1,1092.0087372194018,42.0916561043727) translate(2.8148148148148167 44.44444444444444)"/><use xlink:href="#p" transform="matrix(1,0,0,1,1092.0087372194018,42.0916561043727) translate(33.67901234567901 44.44444444444444)"/><path d="M1174.2 30.1h69.3v69.48h-69.3z" stroke="#6f7681" stroke-width="3" fill="#fff"/><use xlink:href="#v" transform="matrix(1,0,0,1,1186.2047755343685,42.0916561043727) translate(0.1913580246913611 17.77777777777778)"/><use xlink:href="#b" transform="matrix(1,0,0,1,1186.2047755343685,42.0916561043727) translate(2.0432098765432087 44.44444444444444)"/><use xlink:href="#c" transform="matrix(1,0,0,1,1186.2047755343685,42.0916561043727) translate(20.561728395061728 44.44444444444444)"/><path d="M1243.5 30.1h69.25v69.48h-69.25z" stroke="#6f7681" stroke-width="3" fill="#fff"/><use xlink:href="#w" transform="matrix(1,0,0,1,1255.4961141170454,42.0916561043727) translate(0.1913580246913611 17.77777777777778)"/><use xlink:href="#x" transform="matrix(1,0,0,1,1255.4961141170454,42.0916561043727) translate(2.0432098765432087 44.44444444444444)"/><use xlink:href="#c" transform="matrix(1,0,0,1,1255.4961141170454,42.0916561043727) translate(20.561728395061728 44.44444444444444)"/><path d="M348.37 30.1h113.38v69.48H348.37z" stroke="#6f7681" stroke-width="3" fill="#54c45e"/><use xlink:href="#d" transform="matrix(1,0,0,1,360.3673229434009,42.0916561043727) translate(33.91975308641975 17.77777777777778)"/><use xlink:href="#y" transform="matrix(1,0,0,1,360.3673229434009,42.0916561043727) translate(9.876543209876544 44.44444444444444)"/><use xlink:href="#f" transform="matrix(1,0,0,1,360.3673229434009,42.0916561043727) translate(40.74074074074074 44.44444444444444)"/><path d="M461.75 30.1h81.9v69.48h-81.9z" stroke="#6f7681" stroke-width="3" fill="#cfe4ff"/><g><use xlink:href="#z" transform="matrix(1,0,0,1,473.7531497150544,42.0916561043727) translate(6.469135802469136 17.77777777777778)"/><use xlink:href="#b" transform="matrix(1,0,0,1,473.7531497150544,42.0916561043727) translate(8.043209876543209 44.44444444444444)"/><use xlink:href="#c" transform="matrix(1,0,0,1,473.7531497150544,42.0916561043727) translate(26.561728395061728 44.44444444444444)"/></g><path d="M543.74 30.1h69.3v69.48h-69.3z" stroke="#6f7681" stroke-width="3" fill="#fff"/><g><use xlink:href="#A" transform="matrix(1,0,0,1,555.7427794809043,42.0916561043727) translate(0.5000000000000036 17.77777777777778)"/><use xlink:href="#l" transform="matrix(1,0,0,1,555.7427794809043,42.0916561043727) translate(2.0432098765432087 44.44444444444444)"/><use xlink:href="#m" transform="matrix(1,0,0,1,555.7427794809043,42.0916561043727) translate(20.561728395061728 44.44444444444444)"/></g><path d="M452.76 180.13L406.1 102.8" stroke="#6f7681" stroke-width="4" fill="none"/><path d="M453.8 185.35l-.17.1-2.6-4.33 2.76-1.67zM407.83 101.8l-3.42 2.07-1.68-2.8h4.68z" stroke="#6f7681" stroke-width=".05" fill="#6f7681"/><path d="M451.85 181.36l-316.7-79.8" stroke="#6f7681" stroke-width="4" fill="none"/><path d="M453.8 179.78v4.13l-2.48-.62.97-3.88zM134.72 103.52l-4.9-1.23.3-1.22h5.2z" stroke="#6f7681" stroke-width=".05" fill="#6f7681"/><path d="M524.58 147.1h220.8v69.5h-220.8z" stroke="#6f7681" stroke-width="3" fill="#54c45e"/><g><use xlink:href="#B" transform="matrix(1,0,0,1,536.5844526459284,159.09953012012028) translate(12.203703703703695 17.77777777777778)"/><use xlink:href="#C" transform="matrix(1,0,0,1,536.5844526459284,159.09953012012028) translate(88.68518518518518 17.77777777777778)"/><use xlink:href="#D" transform="matrix(1,0,0,1,536.5844526459284,159.09953012012028) translate(162.6358024691358 17.77777777777778)"/><use xlink:href="#E" transform="matrix(1,0,0,1,536.5844526459284,159.09953012012028) translate(71.98765432098766 44.44444444444444)"/><use xlink:href="#F" transform="matrix(1,0,0,1,536.5844526459284,159.09953012012028) translate(90.50617283950618 44.44444444444444)"/></g><path d="M745.37 147.1h220.8v69.5h-220.8z" stroke="#6f7681" stroke-width="3" fill="#54c45e"/><g><use xlink:href="#G" transform="matrix(1,0,0,1,757.3718542207312,159.09953012012028) translate(16.555555555555543 17.77777777777778)"/><use xlink:href="#C" transform="matrix(1,0,0,1,757.3718542207312,159.09953012012028) translate(84.33333333333331 17.77777777777778)"/><use xlink:href="#D" transform="matrix(1,0,0,1,757.3718542207312,159.09953012012028) translate(158.28395061728395 17.77777777777778)"/><use xlink:href="#E" transform="matrix(1,0,0,1,757.3718542207312,159.09953012012028) translate(71.98765432098766 44.44444444444444)"/><use xlink:href="#F" transform="matrix(1,0,0,1,757.3718542207312,159.09953012012028) translate(90.50617283950618 44.44444444444444)"/></g><path d="M1060.78 147.1h251.97v69.5h-251.97z" stroke="#6f7681" stroke-width="3" fill="#54c45e"/><g><use xlink:href="#H" transform="matrix(1,0,0,1,1072.7839277115445,159.09953012012028) translate(41.83950617283949 17.77777777777778)"/><use xlink:href="#I" transform="matrix(1,0,0,1,1072.7839277115445,159.09953012012028) translate(138.07407407407408 17.77777777777778)"/><use xlink:href="#E" transform="matrix(1,0,0,1,1072.7839277115445,159.09953012012028) translate(87.48765432098766 44.44444444444444)"/><use xlink:href="#F" transform="matrix(1,0,0,1,1072.7839277115445,159.09953012012028) translate(106.00617283950618 44.44444444444444)"/></g><path d="M455.3 147.1h69.28v69.5h-69.3z" stroke="#6f7681" stroke-width="3" fill="#fff"/><g><use xlink:href="#J" transform="matrix(1,0,0,1,467.29311406325104,159.09953012012028) translate(16.82716049382716 17.77777777777778)"/><use xlink:href="#K" transform="matrix(1,0,0,1,467.29311406325104,159.09953012012028) translate(2.0432098765432087 44.44444444444444)"/><use xlink:href="#L" transform="matrix(1,0,0,1,467.29311406325104,159.09953012012028) translate(20.561728395061728 44.44444444444444)"/></g><path d="M966.16 147.1h94.62v69.5h-94.62z" stroke="#6f7681" stroke-width="3" fill="#fff"/><g><use xlink:href="#J" transform="matrix(1,0,0,1,978.1592557955342,159.09953012012028) translate(29.32716049382716 17.77777777777778)"/><use xlink:href="#M" transform="matrix(1,0,0,1,978.1592557955342,159.09953012012028) translate(8.987654320987655 44.44444444444444)"/><use xlink:href="#N" transform="matrix(1,0,0,1,978.1592557955342,159.09953012012028) translate(27.506172839506174 44.44444444444444)"/></g><path d="M455.3 216.33h857.45v31.5H455.3z" stroke="#000" stroke-opacity="0" stroke-width="3" fill-opacity="0"/><g><use xlink:href="#O" transform="matrix(1,0,0,1,455.2931140632512,216.33181358468738) translate(393.37654320987656 21.87377777777778)"/><use xlink:href="#P" transform="matrix(1,0,0,1,455.2931140632512,216.33181358468738) translate(424.24074074074076 21.87377777777778)"/></g><defs><path fill="#3a414a" d="M185-189c-5-48-123-54-124 2 14 75 158 14 163 119 3 78-121 87-175 55-17-10-28-26-33-46l33-7c5 56 141 63 141-1 0-78-155-14-162-118-5-82 145-84 179-34 5 7 8 16 11 25" id="Q"/><path fill="#3a414a" d="M140-251c81 0 123 46 123 126C263-46 219 4 140 4 59 4 17-45 17-125s42-126 123-126zm0 227c63 0 89-41 89-101s-29-99-89-99c-61 0-89 39-89 99S79-25 140-24" id="R"/><path fill="#3a414a" d="M63-220v92h138v28H63V0H30v-248h175v28H63" id="S"/><g id="a"><use transform="matrix(0.06172839506172839,0,0,0.06172839506172839,0,0)" xlink:href="#Q"/><use transform="matrix(0.06172839506172839,0,0,0.06172839506172839,14.814814814814813,0)" xlink:href="#R"/><use transform="matrix(0.06172839506172839,0,0,0.06172839506172839,32.09876543209876,0)" xlink:href="#S"/></g><path fill="#3a414a" d="M27 0v-27h64v-190l-56 39v-29l58-41h29v221h61V0H27" id="T"/><use transform="matrix(0.06172839506172839,0,0,0.06172839506172839,0,0)" xlink:href="#T" id="b"/><path fill="#3a414a" d="M115-194c53 0 69 39 70 98 0 66-23 100-70 100C84 3 66-7 56-30L54 0H23l1-261h32v101c10-23 28-34 59-34zm-8 174c40 0 45-34 45-75 0-40-5-75-45-74-42 0-51 32-51 76 0 43 10 73 51 73" id="U"/><path fill="#3a414a" d="M24-231v-30h32v30H24zM24 0v-190h32V0H24" id="V"/><path fill="#3a414a" d="M59-47c-2 24 18 29 38 22v24C64 9 27 4 27-40v-127H5v-23h24l9-43h21v43h35v23H59v120" id="W"/><g id="c"><use transform="matrix(0.06172839506172839,0,0,0.06172839506172839,0,0)" xlink:href="#U"/><use transform="matrix(0.06172839506172839,0,0,0.06172839506172839,12.345679012345679,0)" xlink:href="#V"/><use transform="matrix(0.06172839506172839,0,0,0.06172839506172839,17.22222222222222,0)" xlink:href="#W"/></g><path fill="#3a414a" d="M24 0v-248h52V0H24" id="X"/><path fill="#3a414a" d="M24-248c120-7 223 5 221 122C244-46 201 0 124 0H24v-248zM76-40c74 7 117-18 117-86 0-67-45-88-117-82v168" id="Y"/><g id="d"><use transform="matrix(0.06172839506172839,0,0,0.06172839506172839,0,0)" xlink:href="#X"/><use transform="matrix(0.06172839506172839,0,0,0.06172839506172839,6.172839506172839,0)" xlink:href="#Y"/></g><path fill="#3a414a" d="M23 0v-37h61v-169l-59 37v-38l62-41h46v211h57V0H23" id="Z"/><g id="e"><use transform="matrix(0.06172839506172839,0,0,0.06172839506172839,0,0)" xlink:href="#Z"/><use transform="matrix(0.06172839506172839,0,0,0.06172839506172839,11.11111111111111,0)" xlink:href="#Z"/></g><path fill="#3a414a" d="M135-194c52 0 70 43 70 98 0 56-19 99-73 100-30 1-46-15-58-35L72 0H24l1-261h50v104c11-23 29-37 60-37zM114-30c31 0 40-27 40-66 0-37-7-63-39-63s-41 28-41 65c0 36 8 64 40 64" id="aa"/><path fill="#3a414a" d="M25-224v-37h50v37H25zM25 0v-190h50V0H25" id="ab"/><path fill="#3a414a" d="M115-3C79 11 28 4 28-45v-112H4v-33h27l15-45h31v45h36v33H77v99c-1 23 16 31 38 25v30" id="ac"/><path fill="#3a414a" d="M137-138c1-29-70-34-71-4 15 46 118 7 119 86 1 83-164 76-172 9l43-7c4 19 20 25 44 25 33 8 57-30 24-41C81-84 22-81 20-136c-2-80 154-74 161-7" id="ad"/><g id="f"><use transform="matrix(0.06172839506172839,0,0,0.06172839506172839,0,0)" xlink:href="#aa"/><use transform="matrix(0.06172839506172839,0,0,0.06172839506172839,13.518518518518517,0)" xlink:href="#ab"/><use transform="matrix(0.06172839506172839,0,0,0.06172839506172839,19.691358024691358,0)" xlink:href="#ac"/><use transform="matrix(0.06172839506172839,0,0,0.06172839506172839,27.037037037037038,0)" xlink:href="#ad"/></g><path fill="#3a414a" d="M233-177c-1 41-23 64-60 70L243 0h-38l-65-103H63V0H30v-248c88 3 205-21 203 71zM63-129c60-2 137 13 137-47 0-61-80-42-137-45v92" id="ae"/><path fill="#3a414a" d="M18-150v-26h174v26H18zm0 90v-26h174v26H18" id="af"/><path fill="#3a414a" d="M101-251c68 0 85 55 85 127S166 4 100 4C33 4 14-52 14-124c0-73 17-127 87-127zm-1 229c47 0 54-49 54-102s-4-102-53-102c-51 0-55 48-55 102 0 53 5 102 54 102" id="ag"/><g id="g"><use transform="matrix(0.06172839506172839,0,0,0.06172839506172839,0,0)" xlink:href="#Q"/><use transform="matrix(0.06172839506172839,0,0,0.06172839506172839,14.814814814814813,0)" xlink:href="#Q"/><use transform="matrix(0.06172839506172839,0,0,0.06172839506172839,29.629629629629626,0)" xlink:href="#ae"/><use transform="matrix(0.06172839506172839,0,0,0.06172839506172839,45.61728395061728,0)" xlink:href="#af"/><use transform="matrix(0.06172839506172839,0,0,0.06172839506172839,58.58024691358024,0)" xlink:href="#ag"/></g><use transform="matrix(0.06172839506172839,0,0,0.06172839506172839,0,0)" xlink:href="#T" id="h"/><g id="i"><use transform="matrix(0.06172839506172839,0,0,0.06172839506172839,0,0)" xlink:href="#U"/><use transform="matrix(0.06172839506172839,0,0,0.06172839506172839,12.345679012345679,0)" xlink:href="#V"/><use transform="matrix(0.06172839506172839,0,0,0.06172839506172839,17.22222222222222,0)" xlink:href="#W"/></g><path fill="#3a414a" d="M33 0v-248h34V0H33" id="ah"/><path fill="#3a414a" d="M30-248c118-7 216 8 213 122C240-48 200 0 122 0H30v-248zM63-27c89 8 146-16 146-99s-60-101-146-95v194" id="ai"/><path fill="#3a414a" d="M30 0v-248h187v28H63v79h144v27H63v87h162V0H30" id="aj"/><g id="j"><use transform="matrix(0.06172839506172839,0,0,0.06172839506172839,0,0)" xlink:href="#ah"/><use transform="matrix(0.06172839506172839,0,0,0.06172839506172839,6.172839506172839,0)" xlink:href="#ai"/><use transform="matrix(0.06172839506172839,0,0,0.06172839506172839,22.160493827160494,0)" xlink:href="#aj"/><use transform="matrix(0.06172839506172839,0,0,0.06172839506172839,36.9753086419753,0)" xlink:href="#af"/><use transform="matrix(0.06172839506172839,0,0,0.06172839506172839,49.938271604938265,0)" xlink:href="#T"/></g><path fill="#979ea8" d="M114-163C36-179 61-72 57 0H25l-1-190h30c1 12-1 29 2 39 6-27 23-49 58-41v29" id="ak"/><path fill="#979ea8" d="M101-251c68 0 85 55 85 127S166 4 100 4C33 4 14-52 14-124c0-73 17-127 87-127zm-1 229c47 0 54-49 54-102s-4-102-53-102c-51 0-55 48-55 102 0 53 5 102 54 102" id="al"/><path fill="#979ea8" d="M18-150v-26h174v26H18zm0 90v-26h174v26H18" id="am"/><g id="k"><use transform="matrix(0.06172839506172839,0,0,0.06172839506172839,0,0)" xlink:href="#ak"/><use transform="matrix(0.06172839506172839,0,0,0.06172839506172839,7.345679012345679,0)" xlink:href="#al"/><use transform="matrix(0.06172839506172839,0,0,0.06172839506172839,19.691358024691358,0)" xlink:href="#am"/><use transform="matrix(0.06172839506172839,0,0,0.06172839506172839,32.654320987654316,0)" xlink:href="#al"/></g><path fill="#979ea8" d="M27 0v-27h64v-190l-56 39v-29l58-41h29v221h61V0H27" id="an"/><use transform="matrix(0.06172839506172839,0,0,0.06172839506172839,0,0)" xlink:href="#an" id="l"/><path fill="#979ea8" d="M115-194c53 0 69 39 70 98 0 66-23 100-70 100C84 3 66-7 56-30L54 0H23l1-261h32v101c10-23 28-34 59-34zm-8 174c40 0 45-34 45-75 0-40-5-75-45-74-42 0-51 32-51 76 0 43 10 73 51 73" id="ao"/><path fill="#979ea8" d="M24-231v-30h32v30H24zM24 0v-190h32V0H24" id="ap"/><path fill="#979ea8" d="M59-47c-2 24 18 29 38 22v24C64 9 27 4 27-40v-127H5v-23h24l9-43h21v43h35v23H59v120" id="aq"/><g id="m"><use transform="matrix(0.06172839506172839,0,0,0.06172839506172839,0,0)" xlink:href="#ao"/><use transform="matrix(0.06172839506172839,0,0,0.06172839506172839,12.345679012345679,0)" xlink:href="#ap"/><use transform="matrix(0.06172839506172839,0,0,0.06172839506172839,17.22222222222222,0)" xlink:href="#aq"/></g><path fill="#3a414a" d="M30 0v-248h33v221h125V0H30" id="ar"/><path fill="#3a414a" d="M212-179c-10-28-35-45-73-45-59 0-87 40-87 99 0 60 29 101 89 101 43 0 62-24 78-52l27 14C228-24 195 4 139 4 59 4 22-46 18-125c-6-104 99-153 187-111 19 9 31 26 39 46" id="as"/><g id="n"><use transform="matrix(0.06172839506172839,0,0,0.06172839506172839,0,0)" xlink:href="#ai"/><use transform="matrix(0.06172839506172839,0,0,0.06172839506172839,15.987654320987653,0)" xlink:href="#ar"/><use transform="matrix(0.06172839506172839,0,0,0.06172839506172839,28.333333333333332,0)" xlink:href="#as"/></g><path fill="#3a414a" d="M155-56V0h-30v-56H8v-25l114-167h33v167h35v25h-35zm-30-156c-27 46-58 90-88 131h88v-131" id="at"/><use transform="matrix(0.06172839506172839,0,0,0.06172839506172839,0,0)" xlink:href="#at" id="o"/><path fill="#3a414a" d="M135-143c-3-34-86-38-87 0 15 53 115 12 119 90S17 21 10-45l28-5c4 36 97 45 98 0-10-56-113-15-118-90-4-57 82-63 122-42 12 7 21 19 24 35" id="au"/><g id="p"><use transform="matrix(0.06172839506172839,0,0,0.06172839506172839,0,0)" xlink:href="#U"/><use transform="matrix(0.06172839506172839,0,0,0.06172839506172839,12.345679012345679,0)" xlink:href="#V"/><use transform="matrix(0.06172839506172839,0,0,0.06172839506172839,17.22222222222222,0)" xlink:href="#W"/><use transform="matrix(0.06172839506172839,0,0,0.06172839506172839,23.39506172839506,0)" xlink:href="#au"/></g><path fill="#3a414a" d="M133-34C117-15 103 5 69 4 32 3 11-16 11-54c-1-60 55-63 116-61 1-26-3-47-28-47-18 1-26 9-28 27l-52-2c7-38 36-58 82-57s74 22 75 68l1 82c-1 14 12 18 25 15v27c-30 8-71 5-69-32zm-48 3c29 0 43-24 42-57-32 0-66-3-65 30 0 17 8 27 23 27" id="av"/><g id="q"><use transform="matrix(0.06172839506172839,0,0,0.06172839506172839,0,0)" xlink:href="#Y"/><use transform="matrix(0.06172839506172839,0,0,0.06172839506172839,15.987654320987653,0)" xlink:href="#av"/><use transform="matrix(0.06172839506172839,0,0,0.06172839506172839,28.333333333333332,0)" xlink:href="#ac"/><use transform="matrix(0.06172839506172839,0,0,0.06172839506172839,35.67901234567901,0)" xlink:href="#av"/></g><path fill="#3a414a" d="M138-131c27 9 52 24 51 61 0 53-36 74-89 74S11-19 11-69c0-35 22-54 51-61-78-25-46-121 38-121 51 0 83 19 83 66 0 30-18 49-45 54zm-38-16c24 0 32-13 32-36 1-23-11-34-32-34-22 0-33 12-32 34 0 22 9 36 32 36zm1 116c27 0 37-17 37-43 0-25-13-39-39-39-24 0-37 15-37 40 0 27 11 42 39 42" id="aw"/><use transform="matrix(0.06172839506172839,0,0,0.06172839506172839,0,0)" xlink:href="#aw" id="r"/><path fill="#3a414a" d="M123 10C108 53 80 86 19 72V37c35 8 53-11 59-39L3-190h52l48 148c12-52 28-100 44-148h51" id="ax"/><path fill="#3a414a" d="M185-48c-13 30-37 53-82 52C43 2 14-33 14-96s30-98 90-98c62 0 83 45 84 108H66c0 31 8 55 39 56 18 0 30-7 34-22zm-45-69c5-46-57-63-70-21-2 6-4 13-4 21h74" id="ay"/><g id="s"><use transform="matrix(0.06172839506172839,0,0,0.06172839506172839,0,0)" xlink:href="#aa"/><use transform="matrix(0.06172839506172839,0,0,0.06172839506172839,13.518518518518517,0)" xlink:href="#ax"/><use transform="matrix(0.06172839506172839,0,0,0.06172839506172839,25.864197530864196,0)" xlink:href="#ac"/><use transform="matrix(0.06172839506172839,0,0,0.06172839506172839,33.20987654320987,0)" xlink:href="#ay"/><use transform="matrix(0.06172839506172839,0,0,0.06172839506172839,45.55555555555555,0)" xlink:href="#ad"/></g><g id="t"><use transform="matrix(0.06172839506172839,0,0,0.06172839506172839,0,0)" xlink:href="#as"/><use transform="matrix(0.06172839506172839,0,0,0.06172839506172839,15.987654320987653,0)" xlink:href="#ae"/><use transform="matrix(0.06172839506172839,0,0,0.06172839506172839,31.975308641975307,0)" xlink:href="#as"/></g><path fill="#3a414a" d="M54-142c48-35 137-8 131 61C196 18 31 33 14-55l32-4c7 23 22 37 52 37 35-1 51-22 54-58 4-55-73-65-99-34H22l8-134h141v27H59" id="az"/><g id="u"><use transform="matrix(0.06172839506172839,0,0,0.06172839506172839,0,0)" xlink:href="#T"/><use transform="matrix(0.06172839506172839,0,0,0.06172839506172839,12.345679012345679,0)" xlink:href="#az"/></g><path fill="#3a414a" d="M205 0l-28-72H64L36 0H1l101-248h38L239 0h-34zm-38-99l-47-123c-12 45-31 82-46 123h93" id="aA"/><path fill="#3a414a" d="M194 0L95-120 63-95V0H30v-248h33v124l119-124h40L117-140 236 0h-42" id="aB"/><g id="v"><use transform="matrix(0.06172839506172839,0,0,0.06172839506172839,0,0)" xlink:href="#aA"/><use transform="matrix(0.06172839506172839,0,0,0.06172839506172839,14.814814814814813,0)" xlink:href="#as"/><use transform="matrix(0.06172839506172839,0,0,0.06172839506172839,30.80246913580247,0)" xlink:href="#aB"/></g><g id="w"><use transform="matrix(0.06172839506172839,0,0,0.06172839506172839,0,0)" xlink:href="#aj"/><use transform="matrix(0.06172839506172839,0,0,0.06172839506172839,14.814814814814813,0)" xlink:href="#R"/><use transform="matrix(0.06172839506172839,0,0,0.06172839506172839,32.09876543209876,0)" xlink:href="#S"/></g><path fill="#3a414a" d="M64 0c3-98 48-159 88-221H18v-27h164v26C143-157 98-101 97 0H64" id="aC"/><use transform="matrix(0.06172839506172839,0,0,0.06172839506172839,0,0)" xlink:href="#aC" id="x"/><g id="y"><use transform="matrix(0.06172839506172839,0,0,0.06172839506172839,0,0)" xlink:href="#Z"/><use transform="matrix(0.06172839506172839,0,0,0.06172839506172839,12.345679012345679,0)" xlink:href="#aw"/></g><path fill="#3a414a" d="M127-220V0H93v-220H8v-28h204v28h-85" id="aD"/><g id="z"><use transform="matrix(0.06172839506172839,0,0,0.06172839506172839,0,0)" xlink:href="#ae"/><use transform="matrix(0.06172839506172839,0,0,0.06172839506172839,15.555555555555555,0)" xlink:href="#aD"/><use transform="matrix(0.06172839506172839,0,0,0.06172839506172839,29.074074074074073,0)" xlink:href="#ae"/></g><g id="A"><use transform="matrix(0.06172839506172839,0,0,0.06172839506172839,0,0)" xlink:href="#ak"/><use transform="matrix(0.06172839506172839,0,0,0.06172839506172839,7.345679012345679,0)" xlink:href="#an"/><use transform="matrix(0.06172839506172839,0,0,0.06172839506172839,19.691358024691358,0)" xlink:href="#am"/><use transform="matrix(0.06172839506172839,0,0,0.06172839506172839,32.654320987654316,0)" xlink:href="#al"/></g><path fill="#3a414a" d="M100-194c62-1 85 37 85 99 1 63-27 99-86 99S16-35 15-95c0-66 28-99 85-99zM99-20c44 1 53-31 53-75 0-43-8-75-51-75s-53 32-53 75 10 74 51 75" id="aE"/><path fill="#3a414a" d="M84 4C-5 8 30-112 23-190h32v120c0 31 7 50 39 49 72-2 45-101 50-169h31l1 190h-30c-1-10 1-25-2-33-11 22-28 36-60 37" id="aF"/><path fill="#3a414a" d="M114-163C36-179 61-72 57 0H25l-1-190h30c1 12-1 29 2 39 6-27 23-49 58-41v29" id="aG"/><path fill="#3a414a" d="M96-169c-40 0-48 33-48 73s9 75 48 75c24 0 41-14 43-38l32 2c-6 37-31 61-74 61-59 0-76-41-82-99-10-93 101-131 147-64 4 7 5 14 7 22l-32 3c-4-21-16-35-41-35" id="aH"/><path fill="#3a414a" d="M100-194c63 0 86 42 84 106H49c0 40 14 67 53 68 26 1 43-12 49-29l28 8c-11 28-37 45-77 45C44 4 14-33 15-96c1-61 26-98 85-98zm52 81c6-60-76-77-97-28-3 7-6 17-6 28h103" id="aI"/><g id="B"><use transform="matrix(0.06172839506172839,0,0,0.06172839506172839,0,0)" xlink:href="#Q"/><use transform="matrix(0.06172839506172839,0,0,0.06172839506172839,14.814814814814813,0)" xlink:href="#aE"/><use transform="matrix(0.06172839506172839,0,0,0.06172839506172839,27.160493827160494,0)" xlink:href="#aF"/><use transform="matrix(0.06172839506172839,0,0,0.06172839506172839,39.50617283950617,0)" xlink:href="#aG"/><use transform="matrix(0.06172839506172839,0,0,0.06172839506172839,46.85185185185185,0)" xlink:href="#aH"/><use transform="matrix(0.06172839506172839,0,0,0.06172839506172839,57.96296296296296,0)" xlink:href="#aI"/></g><path fill="#3a414a" d="M108 0H70L1-190h34L89-25l56-165h34" id="aJ"/><g id="C"><use transform="matrix(0.06172839506172839,0,0,0.06172839506172839,0,0)" xlink:href="#ai"/><use transform="matrix(0.06172839506172839,0,0,0.06172839506172839,15.987654320987653,0)" xlink:href="#aI"/><use transform="matrix(0.06172839506172839,0,0,0.06172839506172839,28.333333333333332,0)" xlink:href="#aJ"/><use transform="matrix(0.06172839506172839,0,0,0.06172839506172839,39.44444444444444,0)" xlink:href="#V"/><use transform="matrix(0.06172839506172839,0,0,0.06172839506172839,44.32098765432099,0)" xlink:href="#aH"/><use transform="matrix(0.06172839506172839,0,0,0.06172839506172839,55.4320987654321,0)" xlink:href="#aI"/></g><g id="D"><use transform="matrix(0.06172839506172839,0,0,0.06172839506172839,0,0)" xlink:href="#ah"/><use transform="matrix(0.06172839506172839,0,0,0.06172839506172839,6.172839506172839,0)" xlink:href="#ai"/></g><path fill="#3a414a" d="M134-131c28 9 52 24 51 62-1 50-34 73-85 73S17-19 16-69c0-36 21-54 49-61-75-25-45-126 34-121 46 3 78 18 79 63 0 33-17 51-44 57zm-34-11c31 1 46-15 46-44 0-28-17-43-47-42-29 0-46 13-45 42 1 28 16 44 46 44zm1 122c35 0 51-18 51-52 0-30-18-46-53-46-33 0-51 17-51 47 0 34 19 51 53 51" id="aK"/><use transform="matrix(0.06172839506172839,0,0,0.06172839506172839,0,0)" xlink:href="#aK" id="E"/><g id="F"><use transform="matrix(0.06172839506172839,0,0,0.06172839506172839,0,0)" xlink:href="#U"/><use transform="matrix(0.06172839506172839,0,0,0.06172839506172839,12.345679012345679,0)" xlink:href="#V"/><use transform="matrix(0.06172839506172839,0,0,0.06172839506172839,17.22222222222222,0)" xlink:href="#W"/><use transform="matrix(0.06172839506172839,0,0,0.06172839506172839,23.39506172839506,0)" xlink:href="#au"/></g><path fill="#3a414a" d="M141-36C126-15 110 5 73 4 37 3 15-17 15-53c-1-64 63-63 125-63 3-35-9-54-41-54-24 1-41 7-42 31l-33-3c5-37 33-52 76-52 45 0 72 20 72 64v82c-1 20 7 32 28 27v20c-31 9-61-2-59-35zM48-53c0 20 12 33 32 33 41-3 63-29 60-74-43 2-92-5-92 41" id="aL"/><path fill="#3a414a" d="M177-190C167-65 218 103 67 71c-23-6-38-20-44-43l32-5c15 47 100 32 89-28v-30C133-14 115 1 83 1 29 1 15-40 15-95c0-56 16-97 71-98 29-1 48 16 59 35 1-10 0-23 2-32h30zM94-22c36 0 50-32 50-73 0-42-14-75-50-75-39 0-46 34-46 75s6 73 46 73" id="aM"/><g id="G"><use transform="matrix(0.06172839506172839,0,0,0.06172839506172839,0,0)" xlink:href="#aD"/><use transform="matrix(0.06172839506172839,0,0,0.06172839506172839,11.049382716049381,0)" xlink:href="#aL"/><use transform="matrix(0.06172839506172839,0,0,0.06172839506172839,23.39506172839506,0)" xlink:href="#aG"/><use transform="matrix(0.06172839506172839,0,0,0.06172839506172839,30.74074074074074,0)" xlink:href="#aM"/><use transform="matrix(0.06172839506172839,0,0,0.06172839506172839,43.08641975308642,0)" xlink:href="#aI"/><use transform="matrix(0.06172839506172839,0,0,0.06172839506172839,55.432098765432094,0)" xlink:href="#W"/></g><path fill="#3a414a" d="M240 0l2-218c-23 76-54 145-80 218h-23L58-218 59 0H30v-248h44l77 211c21-75 51-140 76-211h43V0h-30" id="aN"/><g id="H"><use transform="matrix(0.06172839506172839,0,0,0.06172839506172839,0,0)" xlink:href="#aN"/><use transform="matrix(0.06172839506172839,0,0,0.06172839506172839,18.456790123456788,0)" xlink:href="#aI"/><use transform="matrix(0.06172839506172839,0,0,0.06172839506172839,30.80246913580247,0)" xlink:href="#au"/><use transform="matrix(0.06172839506172839,0,0,0.06172839506172839,41.91358024691358,0)" xlink:href="#au"/><use transform="matrix(0.06172839506172839,0,0,0.06172839506172839,53.0246913580247,0)" xlink:href="#aL"/><use transform="matrix(0.06172839506172839,0,0,0.06172839506172839,65.37037037037038,0)" xlink:href="#aM"/><use transform="matrix(0.06172839506172839,0,0,0.06172839506172839,77.71604938271606,0)" xlink:href="#aI"/></g><path fill="#3a414a" d="M179-190L93 31C79 59 56 82 12 73V49c39 6 53-20 64-50L1-190h34L92-34l54-156h33" id="aO"/><path fill="#3a414a" d="M115-194c55 1 70 41 70 98S169 2 115 4C84 4 66-9 55-30l1 105H24l-1-265h31l2 30c10-21 28-34 59-34zm-8 174c40 0 45-34 45-75s-6-73-45-74c-42 0-51 32-51 76 0 43 10 73 51 73" id="aP"/><g id="I"><use transform="matrix(0.06172839506172839,0,0,0.06172839506172839,0,0)" xlink:href="#aD"/><use transform="matrix(0.06172839506172839,0,0,0.06172839506172839,12.28395061728395,0)" xlink:href="#aO"/><use transform="matrix(0.06172839506172839,0,0,0.06172839506172839,23.39506172839506,0)" xlink:href="#aP"/><use transform="matrix(0.06172839506172839,0,0,0.06172839506172839,35.74074074074074,0)" xlink:href="#aI"/></g><use transform="matrix(0.06172839506172839,0,0,0.06172839506172839,0,0)" xlink:href="#al" id="J"/><use transform="matrix(0.06172839506172839,0,0,0.06172839506172839,0,0)" xlink:href="#an" id="K"/><g id="L"><use transform="matrix(0.06172839506172839,0,0,0.06172839506172839,0,0)" xlink:href="#ao"/><use transform="matrix(0.06172839506172839,0,0,0.06172839506172839,12.345679012345679,0)" xlink:href="#ap"/><use transform="matrix(0.06172839506172839,0,0,0.06172839506172839,17.22222222222222,0)" xlink:href="#aq"/></g><path fill="#979ea8" d="M155-56V0h-30v-56H8v-25l114-167h33v167h35v25h-35zm-30-156c-27 46-58 90-88 131h88v-131" id="aQ"/><use transform="matrix(0.06172839506172839,0,0,0.06172839506172839,0,0)" xlink:href="#aQ" id="M"/><path fill="#979ea8" d="M135-143c-3-34-86-38-87 0 15 53 115 12 119 90S17 21 10-45l28-5c4 36 97 45 98 0-10-56-113-15-118-90-4-57 82-63 122-42 12 7 21 19 24 35" id="aR"/><g id="N"><use transform="matrix(0.06172839506172839,0,0,0.06172839506172839,0,0)" xlink:href="#ao"/><use transform="matrix(0.06172839506172839,0,0,0.06172839506172839,12.345679012345679,0)" xlink:href="#ap"/><use transform="matrix(0.06172839506172839,0,0,0.06172839506172839,17.22222222222222,0)" xlink:href="#aq"/><use transform="matrix(0.06172839506172839,0,0,0.06172839506172839,23.39506172839506,0)" xlink:href="#aR"/></g><path fill="#3a414a" d="M182-182c0 78-84 86-111 141h115V0H12c-6-101 99-100 120-180 1-22-12-31-33-32-23 0-32 14-35 34l-49-3c5-45 32-70 84-70 51 0 83 22 83 69" id="aS"/><path fill="#3a414a" d="M99-251c69 0 84 53 88 123 5 99-61 162-144 118-15-8-21-25-26-45l46-6c4 31 50 33 63 7 7-15 12-36 12-60-9 18-29 28-54 28-48 0-72-32-72-82 0-55 31-83 87-83zm-1 128c24 0 37-16 37-39 0-27-10-51-37-51-25 0-35 19-35 45 0 25 10 45 35 45" id="aT"/><g id="O"><use transform="matrix(0.06172839506172839,0,0,0.06172839506172839,0,0)" xlink:href="#aS"/><use transform="matrix(0.06172839506172839,0,0,0.06172839506172839,12.345679012345679,0)" xlink:href="#aT"/></g><g id="P"><use transform="matrix(0.06172839506172839,0,0,0.06172839506172839,0,0)" xlink:href="#aa"/><use transform="matrix(0.06172839506172839,0,0,0.06172839506172839,13.518518518518517,0)" xlink:href="#ab"/><use transform="matrix(0.06172839506172839,0,0,0.06172839506172839,19.691358024691358,0)" xlink:href="#ac"/><use transform="matrix(0.06172839506172839,0,0,0.06172839506172839,27.037037037037038,0)" xlink:href="#ad"/></g></defs></g></svg>