<?xml version="1.0" standalone="no"?>
<!DOCTYPE svg PUBLIC "-//W3C//DTD SVG 20010904//EN"
 "http://www.w3.org/TR/2001/REC-SVG-20010904/DTD/svg10.dtd">
<svg version="1.0" xmlns="http://www.w3.org/2000/svg"
 width="1072.000000pt" height="1072.000000pt" viewBox="0 0 1072.000000 1072.000000"
 preserveAspectRatio="xMidYMid meet">
<metadata>
Created by potrace 1.14, written by Peter Selinger 2001-2017
</metadata>
<g transform="translate(0.000000,1072.000000) scale(0.100000,-0.100000)"
fill="#000000" stroke="none">
<path d="M7517 10124 c-1 -1 -38 -4 -82 -8 -69 -5 -105 -10 -210 -30 -33 -6
-119 -27 -135 -33 -8 -3 -20 -7 -26 -8 -27 -6 -193 -70 -238 -91 -28 -13 -56
-24 -63 -24 -7 0 -13 -4 -13 -10 0 -6 -3 -9 -7 -8 -12 3 -120 -49 -128 -61 -3
-6 -15 -11 -26 -11 -10 0 -19 -4 -19 -9 0 -5 -12 -14 -27 -20 -52 -20 -254
-147 -403 -254 -106 -77 -100 -72 -134 -102 -16 -14 -32 -25 -36 -25 -3 0 -17
-10 -29 -21 -13 -12 -49 -43 -80 -68 -58 -46 -144 -119 -185 -156 -114 -102
-227 -207 -257 -239 -43 -45 -40 -47 -141 49 -108 102 -187 174 -247 225 -30
25 -59 50 -65 55 -6 6 -47 39 -91 75 -44 36 -86 69 -92 75 -22 18 -57 44 -123
93 -36 26 -66 50 -68 54 -2 5 -7 8 -12 8 -5 0 -44 24 -87 54 -99 68 -313 197
-313 189 0 -3 -8 1 -17 9 -15 14 -113 62 -243 122 -155 70 -401 138 -541 150
-19 1 -39 5 -45 7 -23 12 -256 1 -334 -16 -14 -3 -35 -7 -48 -10 -29 -5 -93
-26 -107 -34 -5 -3 -19 -7 -30 -8 -10 -2 -22 -7 -25 -11 -3 -4 -27 -17 -54
-30 -162 -77 -332 -252 -437 -452 -30 -56 -69 -149 -94 -220 -1 -3 -4 -12 -8
-20 -6 -14 -24 -82 -34 -125 -10 -46 -13 -61 -18 -85 -2 -14 -7 -36 -10 -50
-10 -51 -15 -87 -21 -145 -3 -33 -7 -69 -9 -80 -9 -58 51 -145 113 -166 109
-36 219 41 229 160 5 65 26 202 33 221 1 3 2 8 1 12 0 4 15 58 34 121 90 298
228 471 445 557 30 12 64 23 75 25 11 2 34 7 50 10 38 9 205 9 265 2 101 -14
259 -54 279 -70 8 -7 15 -10 15 -8 4 18 420 -173 456 -209 3 -3 21 -14 40 -24
19 -11 73 -44 118 -75 46 -31 91 -60 100 -66 66 -40 353 -266 466 -367 23 -20
51 -45 63 -56 70 -60 243 -226 243 -232 0 -4 -21 -30 -46 -56 -25 -27 -65 -71
-88 -97 -22 -27 -54 -63 -71 -81 -16 -17 -50 -55 -75 -85 -25 -29 -51 -59 -57
-66 -15 -16 -87 -104 -191 -235 -42 -52 -79 -97 -82 -100 -3 -3 -17 -21 -30
-40 -13 -19 -27 -37 -30 -40 -3 -3 -18 -23 -35 -45 -16 -22 -33 -44 -37 -50
-14 -17 -142 -191 -158 -215 -44 -65 -64 -80 -115 -84 -66 -6 -149 -15 -205
-22 -25 -3 -61 -8 -80 -10 -80 -8 -139 -15 -161 -20 -13 -2 -44 -6 -69 -9 -25
-2 -56 -7 -69 -9 -12 -3 -42 -8 -65 -10 -22 -3 -63 -10 -91 -16 -27 -6 -57
-11 -65 -11 -8 -1 -42 -5 -75 -11 -33 -6 -73 -12 -90 -15 -16 -3 -84 -16 -150
-30 -66 -14 -133 -27 -148 -29 -16 -2 -32 -6 -37 -9 -7 -4 -49 -13 -100 -20
-8 -1 -24 -6 -35 -10 -47 -17 -52 -15 -60 22 -2 10 -13 59 -25 108 -12 50 -24
99 -26 110 -15 67 -25 113 -29 135 -2 14 -6 35 -8 46 -3 12 -8 39 -11 60 -4
22 -8 46 -11 54 -2 8 -6 35 -9 60 -3 25 -8 56 -11 69 -6 30 -17 123 -29 234
-11 101 -75 165 -168 169 -99 4 -183 -88 -173 -189 12 -109 16 -147 26 -213
14 -103 19 -133 24 -150 2 -8 6 -37 10 -64 3 -27 8 -52 10 -55 1 -3 6 -24 9
-46 8 -47 41 -203 69 -321 3 -12 10 -39 16 -60 19 -67 19 -67 -92 -98 -552
-158 -1100 -407 -1452 -661 -80 -57 -91 -66 -194 -156 -131 -113 -300 -311
-335 -389 -6 -14 -13 -27 -16 -30 -15 -14 -97 -209 -91 -218 1 -1 -5 -17 -13
-36 -8 -19 -12 -37 -9 -40 3 -2 2 -10 -3 -17 -18 -30 -24 -243 -9 -331 7 -38
10 -68 7 -68 -2 0 1 -7 8 -15 7 -8 10 -15 7 -15 -4 0 1 -19 9 -42 9 -24 17
-47 18 -53 10 -37 77 -176 93 -193 7 -7 13 -17 13 -22 0 -9 102 -148 139 -190
56 -62 123 -129 182 -180 35 -30 74 -65 86 -77 13 -12 23 -20 23 -17 0 4 101
-70 153 -112 9 -8 19 -14 21 -14 3 0 41 -23 86 -51 120 -74 160 -97 212 -120
27 -12 48 -25 48 -30 0 -5 9 -9 19 -9 11 0 22 -4 25 -9 5 -7 109 -56 291 -136
28 -12 88 -36 135 -54 47 -18 105 -41 130 -50 59 -23 442 -147 498 -161 23 -6
42 -16 42 -22 0 -5 -9 -49 -21 -97 -12 -47 -23 -97 -25 -111 -3 -14 -13 -61
-24 -105 -20 -88 -30 -139 -45 -235 -2 -14 -6 -34 -8 -46 -3 -12 -8 -45 -12
-74 -4 -29 -9 -62 -11 -74 -3 -12 -7 -39 -9 -61 -2 -22 -7 -60 -10 -85 -10
-94 -15 -138 -21 -215 -8 -94 -8 -487 0 -560 9 -75 23 -181 30 -225 3 -14 7
-41 10 -60 3 -19 17 -75 31 -125 14 -49 27 -98 29 -107 3 -9 14 -38 25 -63 11
-25 18 -45 16 -45 -2 0 14 -35 35 -79 148 -299 378 -496 665 -568 64 -16 79
-19 165 -29 63 -7 285 -2 285 6 0 1 18 4 40 6 37 3 80 11 80 14 0 1 8 3 19 5
83 16 226 60 293 91 17 7 36 14 42 14 6 0 19 4 29 9 9 5 85 42 167 82 83 40
152 77 153 81 2 4 8 8 13 8 6 0 35 16 65 35 30 19 56 35 59 35 9 0 358 241
375 260 3 3 34 27 70 55 80 61 89 69 190 155 75 63 198 174 313 282 l51 48 65
-63 c36 -34 75 -71 87 -82 45 -43 172 -155 234 -206 36 -30 67 -56 70 -59 3
-3 32 -27 65 -53 33 -26 67 -53 75 -60 8 -6 32 -25 55 -41 22 -16 42 -33 43
-38 2 -4 8 -8 13 -8 6 0 15 -5 22 -10 33 -29 138 -100 147 -100 5 0 10 -4 10
-10 0 -5 6 -10 14 -10 8 0 16 -4 18 -8 2 -6 140 -92 233 -145 59 -33 191 -99
265 -131 88 -39 340 -128 340 -121 0 3 10 1 23 -4 30 -12 96 -24 207 -38 79
-10 345 -5 345 7 0 1 11 3 25 5 37 7 49 10 115 29 82 25 255 112 255 129 0 4
5 7 10 7 26 0 181 156 236 238 22 31 44 60 49 64 6 4 6 8 1 8 -5 0 -2 8 6 18
29 34 129 263 143 327 11 55 15 70 24 99 5 17 13 51 17 76 4 25 8 47 9 50 1 3
5 30 9 60 5 30 10 64 12 75 24 124 23 611 -1 813 -5 45 -12 96 -20 165 -5 38
-24 161 -30 197 -7 39 -19 106 -20 110 -1 3 -5 25 -9 50 -5 25 -10 54 -13 65
-2 11 -7 34 -9 50 -5 24 -35 154 -61 260 -15 62 -15 62 14 73 15 6 42 14 58
18 33 8 34 8 55 16 8 4 56 18 105 33 105 31 336 110 382 131 17 8 33 14 36 14
3 0 18 5 34 12 15 6 30 12 33 13 15 5 51 21 105 45 33 15 77 33 98 41 122 44
160 196 72 284 -60 60 -129 65 -240 15 -22 -10 -62 -27 -90 -40 -72 -32 -208
-82 -222 -83 -7 0 -13 -4 -13 -7 0 -4 -15 -11 -32 -15 -18 -4 -37 -9 -43 -11
-59 -21 -326 -107 -379 -123 -39 -12 -73 -18 -77 -14 -7 8 -57 155 -63 184 -2
8 -6 21 -9 29 -4 8 -23 65 -43 125 -20 61 -47 139 -61 175 -14 36 -26 70 -27
75 -4 14 -16 46 -27 70 -8 20 -52 135 -54 145 -1 3 -6 16 -12 30 -6 14 -20 48
-31 75 -38 95 -135 320 -174 405 -22 47 -40 92 -41 100 0 13 36 98 140 330 14
30 31 71 38 90 7 19 25 60 38 91 14 31 23 60 20 63 -4 3 -1 6 5 6 7 0 12 6 12
14 0 8 16 51 35 95 19 45 34 82 34 84 0 1 4 13 9 27 5 14 26 69 46 123 20 53
36 104 36 112 0 8 4 15 8 15 5 0 9 6 9 13 0 6 26 90 57 185 52 155 63 190 65
215 2 15 49 7 131 -21 8 -3 17 -6 20 -6 14 -3 204 -63 230 -73 8 -4 17 -7 20
-7 3 -1 19 -6 35 -13 56 -21 70 -26 80 -28 23 -5 247 -96 355 -145 180 -80
506 -258 530 -289 3 -3 17 -12 33 -20 15 -8 27 -18 27 -23 0 -4 5 -8 10 -8 28
0 298 -244 364 -329 35 -45 103 -156 121 -196 9 -22 21 -49 26 -60 5 -11 11
-31 13 -45 3 -14 5 -25 6 -25 6 0 14 -82 13 -145 -1 -106 -7 -160 -17 -160 -5
0 -7 -3 -3 -6 3 -4 0 -19 -9 -35 -8 -16 -12 -29 -9 -29 3 0 -13 -35 -36 -77
-86 -164 -228 -319 -424 -464 -96 -72 -119 -107 -119 -182 0 -48 5 -63 31 -94
16 -20 43 -44 59 -54 37 -20 110 -21 149 -1 28 14 130 87 165 119 8 7 35 30
59 51 73 61 171 163 231 238 63 79 150 214 150 232 0 7 5 12 10 12 6 0 10 9
10 19 0 11 4 22 9 25 13 9 69 190 80 261 16 107 11 242 -14 360 -3 17 -7 35
-9 42 -1 7 -5 16 -9 19 -4 4 -7 14 -7 23 0 24 -65 168 -107 236 -77 125 -150
214 -277 334 -39 36 -80 76 -93 89 -13 12 -28 22 -33 22 -4 0 -10 4 -12 8 -1
4 -39 35 -83 67 -81 60 -102 74 -142 96 -13 7 -23 16 -23 21 0 4 -6 8 -14 8
-8 0 -21 6 -28 13 -7 7 -20 16 -28 20 -8 4 -33 18 -55 31 -158 93 -465 238
-644 305 -42 16 -85 32 -96 37 -11 4 -22 8 -25 9 -3 1 -16 6 -30 12 -31 13
-249 85 -310 103 -25 8 -49 16 -55 19 -5 3 -19 7 -30 8 -11 2 -31 7 -45 12
-14 5 -38 12 -53 16 -26 5 -28 9 -22 33 4 15 8 32 9 37 1 6 10 46 20 90 10 44
20 87 23 95 3 8 7 22 8 30 1 8 12 65 23 125 12 61 24 119 26 130 5 29 18 107
22 130 1 11 5 36 8 55 3 19 8 51 10 70 3 19 7 53 11 75 20 146 29 295 29 525
0 205 -6 345 -19 410 -3 14 -7 47 -11 75 -3 27 -7 52 -10 56 -2 4 -6 24 -10
45 -3 22 -14 69 -24 107 -10 37 -19 68 -19 70 0 11 -62 170 -92 233 -33 70
-113 196 -152 237 -14 16 -27 32 -29 35 -5 10 -119 114 -148 135 -46 32 -115
73 -153 91 -49 22 -167 65 -167 60 0 -2 -12 1 -26 7 -28 10 -66 16 -162 25
-31 2 -69 6 -85 7 -15 2 -29 2 -30 1z m87 -348 c49 -4 94 -10 100 -14 6 -3 22
-8 36 -10 14 -2 62 -21 107 -43 124 -59 231 -169 306 -314 42 -83 91 -205 81
-205 -4 0 -1 -7 6 -15 7 -8 9 -15 6 -15 -4 0 -4 -6 0 -12 5 -7 9 -21 11 -30 4
-25 8 -44 21 -108 47 -230 50 -672 7 -965 -2 -16 -7 -53 -10 -81 -3 -28 -7
-59 -9 -70 -2 -10 -7 -39 -11 -64 -8 -49 -9 -55 -21 -120 -9 -50 -11 -59 -13
-62 -1 -2 -4 -19 -7 -38 -2 -19 -7 -46 -11 -60 -4 -14 -7 -29 -8 -35 -1 -5 -5
-28 -9 -50 -4 -22 -8 -42 -8 -45 0 -3 -4 -15 -9 -28 -5 -13 -12 -37 -15 -55
-7 -36 -8 -40 -18 -79 -6 -21 -13 -27 -30 -24 -11 3 -21 5 -21 6 0 1 -12 3
-27 5 -16 2 -37 6 -47 10 -21 6 -42 11 -116 25 -27 6 -61 13 -75 16 -14 3 -38
7 -55 10 -16 3 -61 11 -100 19 -96 19 -136 26 -165 30 -14 2 -36 6 -50 9 -23
5 -55 10 -140 21 -19 3 -51 8 -70 11 -19 3 -51 7 -70 9 -19 3 -51 7 -70 10
-53 8 -121 17 -155 20 -80 8 -153 16 -180 20 -16 2 -61 7 -100 10 -38 4 -74 8
-80 8 -5 1 -38 40 -72 87 -34 47 -66 90 -70 95 -4 6 -21 28 -38 50 -16 22 -33
42 -37 43 -4 2 -8 8 -8 14 0 5 -6 15 -12 23 -7 7 -22 25 -33 41 -29 40 -138
178 -145 184 -3 3 -17 21 -30 40 -13 19 -27 37 -30 40 -3 3 -25 30 -50 60 -25
30 -52 62 -60 70 -8 9 -31 36 -50 59 -19 24 -45 55 -58 70 -13 14 -42 48 -65
75 -44 50 -74 83 -162 178 l-53 56 61 60 c34 33 76 73 93 88 17 16 53 49 80
74 50 46 177 157 202 175 7 6 21 17 30 25 10 8 38 31 62 50 25 19 52 41 60 47
15 12 146 109 185 137 60 43 207 136 214 136 5 0 11 4 13 8 8 21 371 204 448
227 3 1 43 14 90 29 83 27 110 34 160 41 14 2 25 4 25 5 0 5 48 10 102 12 35
2 63 7 63 11 0 5 3 6 8 4 4 -3 47 -8 96 -11z m-2168 -1429 c33 -35 86 -93 119
-131 33 -37 69 -78 80 -90 11 -13 38 -44 60 -71 22 -27 45 -53 50 -59 6 -6 28
-34 50 -61 22 -28 44 -55 50 -61 68 -77 283 -364 272 -365 -6 0 -37 0 -67 2
-30 1 -100 3 -155 5 -55 1 -100 3 -100 4 0 1 -12 3 -27 4 -16 1 -28 -2 -28 -7
0 -6 -5 -5 -12 0 -16 11 -697 11 -715 0 -8 -5 -13 -4 -13 3 0 6 -5 8 -11 4 -7
-4 -57 -8 -113 -9 -56 -1 -128 -3 -161 -4 -103 -4 -101 -9 -36 77 33 42 66 84
73 92 7 9 26 34 43 55 16 22 34 45 40 51 5 6 21 26 35 44 14 18 50 63 80 100
30 36 71 85 90 109 19 23 44 53 55 65 11 12 39 45 63 72 24 27 70 78 102 114
32 36 69 77 82 92 13 15 26 27 29 27 4 1 33 -27 65 -62z m439 -1171 c212 -7
374 -16 400 -21 11 -2 40 -4 65 -4 l45 -1 81 -123 c138 -207 224 -339 224
-343 0 -1 27 -46 60 -98 33 -53 60 -100 60 -105 0 -5 3 -11 8 -13 9 -4 192
-317 192 -329 0 -5 5 -9 10 -9 6 0 9 -3 8 -7 -3 -13 24 -63 34 -63 4 0 8 -8 8
-18 0 -10 4 -22 9 -27 24 -27 325 -610 319 -618 -2 -2 3 -11 11 -20 16 -20 11
-44 -29 -128 -62 -129 -203 -394 -214 -401 -6 -4 -8 -8 -3 -8 7 0 -20 -60 -32
-70 -6 -5 -64 -113 -85 -157 -6 -13 -15 -23 -19 -23 -5 0 -6 -4 -3 -9 3 -5 -1
-14 -9 -21 -8 -7 -15 -16 -15 -21 0 -5 -57 -104 -127 -221 -71 -117 -130 -217
-132 -223 -2 -5 -7 -12 -10 -15 -3 -3 -10 -13 -16 -22 -5 -10 -44 -70 -85
-134 -100 -155 -100 -155 -137 -208 -18 -26 -33 -49 -33 -52 0 -3 -5 -10 -10
-17 -6 -7 -16 -20 -23 -30 -15 -21 -29 -24 -169 -33 -62 -4 -133 -8 -158 -10
-355 -22 -1086 -22 -1445 1 -27 1 -102 6 -165 10 -63 4 -124 8 -134 9 -13 0
-44 37 -88 101 -38 55 -72 107 -76 115 -6 15 -16 29 -42 57 -8 9 -13 17 -11
17 2 1 -17 34 -42 74 -26 40 -47 77 -47 82 0 6 -3 10 -8 10 -4 0 -16 17 -27
37 -11 20 -24 41 -30 47 -5 6 -19 28 -30 48 -11 20 -40 69 -64 110 -52 86
-184 316 -195 338 -4 8 -12 24 -19 35 -33 55 -108 195 -107 201 1 4 -2 10 -7
13 -4 3 -39 69 -78 146 -38 77 -73 142 -78 143 -4 2 -5 8 -1 13 3 5 0 9 -5 9
-6 0 -11 9 -11 20 0 11 -5 20 -12 20 -6 0 -9 3 -6 6 4 3 -6 29 -21 57 l-27 52
40 80 c22 44 40 82 41 85 2 17 259 504 276 526 5 6 6 14 2 17 -3 4 -1 7 5 7 7
0 12 7 12 15 0 8 5 15 10 15 6 0 9 3 8 8 -2 4 8 25 22 47 13 22 30 52 36 66 7
15 17 30 23 33 6 4 11 16 11 27 0 10 4 19 8 19 4 0 18 19 30 43 12 23 42 75
67 115 25 41 45 76 45 78 0 3 5 10 10 17 6 7 38 57 72 112 34 55 67 103 72
107 6 4 8 8 4 8 -4 0 21 43 57 96 36 53 65 101 65 105 0 5 4 9 9 9 5 0 12 8
15 18 4 10 14 27 24 38 9 10 23 31 31 46 26 51 49 68 94 69 23 1 58 2 77 4 90
7 251 15 415 21 99 3 181 7 182 7 4 5 640 -1 788 -7z m-1992 -134 c-100 -156
-146 -229 -156 -247 -7 -11 -22 -35 -35 -52 -13 -18 -19 -33 -15 -33 4 0 3 -4
-3 -8 -13 -9 -194 -319 -194 -332 0 -6 -4 -10 -9 -10 -5 0 -11 -8 -14 -17 -3
-10 -19 -40 -35 -68 -38 -67 -107 -194 -140 -258 -15 -29 -31 -55 -37 -59 -5
-4 -6 -8 -1 -8 5 0 1 -9 -10 -21 -10 -12 -18 -24 -18 -28 1 -3 -8 -24 -19 -46
-12 -22 -28 -55 -37 -73 l-15 -33 -16 33 c-25 50 -42 90 -103 243 -31 77 -60
149 -65 160 -32 73 -194 532 -206 585 -2 8 -4 16 -4 18 -1 1 -1 5 -2 10 0 4
-4 12 -9 17 -4 6 -10 27 -14 47 -7 40 -7 40 64 52 14 3 25 5 25 6 0 1 7 3 15
5 51 11 73 16 98 20 15 3 38 8 52 11 32 8 53 12 120 24 30 6 66 12 80 15 14 3
39 7 55 10 17 3 53 10 80 15 75 14 126 22 165 26 19 2 51 6 70 9 82 14 146 23
160 24 8 0 33 3 55 6 22 3 57 7 78 9 21 2 40 6 43 9 3 3 12 3 20 0 10 -4 4
-19 -23 -61z m3052 53 c39 -4 81 -9 95 -11 54 -8 87 -13 135 -19 28 -4 57 -8
66 -10 8 -1 42 -6 74 -10 33 -3 62 -8 65 -10 3 -1 27 -6 54 -9 44 -6 471 -90
521 -103 11 -2 33 -6 50 -9 16 -2 32 -7 36 -12 3 -4 -16 -74 -43 -157 -27 -82
-51 -154 -52 -160 -2 -5 -6 -17 -9 -25 -3 -8 -12 -35 -20 -60 -9 -25 -20 -56
-25 -70 -6 -14 -27 -70 -47 -125 -20 -55 -41 -111 -47 -125 -7 -14 -12 -28
-12 -32 -1 -3 -4 -10 -8 -14 -5 -4 -8 -13 -8 -21 0 -7 -9 -32 -19 -56 -11 -23
-32 -71 -46 -107 -14 -36 -34 -81 -43 -100 -9 -19 -17 -40 -18 -47 -1 -6 -8
-21 -16 -32 -13 -18 -19 -9 -81 112 -66 131 -122 235 -177 332 -29 52 -53 94
-101 180 -16 28 -38 69 -51 93 -12 23 -26 42 -30 42 -4 0 -8 6 -8 13 0 6 -18
40 -40 75 -22 34 -40 65 -40 67 0 2 -13 24 -30 48 -16 25 -30 47 -30 51 0 3
-22 39 -50 79 -27 41 -50 79 -50 85 0 5 -3 12 -8 14 -9 4 -92 132 -92 142 0 4
8 5 18 2 9 -2 49 -8 87 -11z m-4505 -428 c24 -78 47 -146 52 -151 4 -6 8 -20
8 -31 0 -12 3 -25 8 -29 4 -4 7 -11 8 -14 0 -4 3 -14 6 -22 4 -8 11 -28 16
-45 6 -16 23 -66 40 -110 74 -202 105 -283 123 -322 10 -24 19 -45 19 -48 0
-3 8 -24 19 -48 10 -23 35 -82 56 -132 37 -89 60 -143 95 -220 10 -22 30 -66
44 -97 l25 -56 -23 -49 c-13 -26 -40 -86 -60 -133 -40 -92 -40 -91 -86 -195
-17 -38 -31 -72 -32 -75 0 -3 -4 -14 -9 -25 -19 -49 -91 -231 -93 -240 -2 -5
-6 -17 -9 -25 -10 -22 -53 -139 -97 -262 -21 -59 -35 -109 -32 -112 3 -4 -1
-6 -8 -6 -7 0 -11 -3 -7 -6 3 -3 -2 -29 -13 -58 -10 -28 -30 -90 -45 -138 -24
-80 -43 -107 -60 -90 -4 4 -11 8 -16 8 -5 1 -10 2 -11 4 -2 1 -11 3 -20 6 -10
2 -24 5 -30 7 -7 2 -53 16 -103 32 -49 16 -94 30 -100 31 -31 8 -335 120 -392
144 -13 6 -33 14 -45 19 -126 52 -413 193 -466 229 -18 12 -35 22 -38 22 -5 0
-159 97 -179 112 -5 5 -41 32 -80 60 -253 189 -428 413 -481 618 -17 64 -22
183 -11 250 17 108 97 270 187 382 64 80 195 204 276 263 15 11 33 26 40 32
23 23 259 173 271 173 7 0 13 4 13 8 0 4 15 15 33 23 17 9 75 38 127 66 52 27
111 55 130 63 19 8 37 16 40 20 3 3 32 16 65 29 33 13 83 34 110 47 66 29 299
115 405 148 47 15 92 30 100 33 22 9 30 11 79 23 24 6 50 14 58 18 42 24 48
15 93 -131z m792 -1877 c42 -80 84 -161 95 -180 18 -32 46 -82 110 -200 57
-104 107 -185 115 -188 4 -2 8 -12 8 -22 0 -10 4 -21 9 -24 8 -5 48 -69 121
-196 21 -36 72 -117 147 -233 35 -53 63 -100 63 -102 0 -5 -36 -2 -140 10 -24
3 -75 10 -147 20 -18 3 -50 7 -70 10 -21 3 -63 10 -93 15 -30 5 -71 12 -90 15
-19 3 -62 11 -95 17 -33 6 -69 12 -80 13 -11 2 -33 6 -50 10 -46 10 -67 14
-109 20 -21 3 -44 9 -50 12 -6 4 -22 8 -36 9 -14 1 -59 10 -100 20 -41 10 -79
17 -84 16 -11 -4 1 53 28 128 9 25 19 54 21 65 7 32 79 240 125 360 23 61 43
115 44 120 2 6 7 19 11 30 4 11 21 54 37 95 16 41 36 89 43 105 11 26 24 58
30 75 1 3 10 23 20 45 9 22 21 51 26 64 5 13 11 22 13 20 1 -2 37 -69 78 -149z
m4450 1 c21 -53 43 -105 48 -116 20 -45 111 -288 150 -400 23 -66 44 -127 48
-135 3 -8 6 -17 7 -20 0 -3 12 -36 25 -75 13 -38 25 -75 26 -80 1 -6 10 -36
20 -68 9 -31 15 -59 13 -62 -3 -2 -16 -7 -30 -9 -13 -2 -24 -5 -24 -6 0 -2
-12 -4 -72 -13 -18 -3 -40 -8 -50 -11 -10 -3 -31 -8 -48 -11 -16 -3 -40 -8
-52 -10 -13 -3 -33 -7 -45 -9 -13 -3 -33 -7 -44 -10 -12 -2 -37 -7 -55 -10
-19 -3 -72 -12 -119 -20 -47 -8 -105 -18 -130 -21 -24 -4 -47 -8 -50 -10 -3
-1 -30 -6 -61 -9 -31 -4 -67 -9 -80 -11 -13 -3 -46 -8 -74 -11 -27 -3 -61 -7
-75 -9 -74 -10 -140 -14 -140 -9 0 3 53 90 119 192 129 204 166 264 196 320
11 20 36 64 56 97 36 58 52 87 107 185 14 25 36 65 50 90 14 25 34 63 46 85
12 22 24 42 27 45 4 3 10 16 14 30 4 14 10 27 14 30 3 3 16 25 29 50 12 25 27
52 31 60 5 8 20 36 32 62 l24 48 13 -27 c8 -14 32 -69 54 -122z m-4965 -1294
c5 -3 28 -8 53 -12 25 -4 47 -8 51 -10 3 -2 21 -7 40 -10 19 -3 52 -10 74 -15
22 -5 56 -12 75 -15 19 -3 53 -10 75 -15 22 -5 56 -11 75 -14 19 -3 81 -14
138 -24 56 -10 114 -18 127 -17 14 0 25 -3 25 -7 0 -4 3 -7 8 -6 8 2 122 -11
227 -27 65 -10 98 -14 138 -16 20 -2 37 -5 37 -8 0 -4 15 -6 33 -6 38 0 173
-13 202 -19 11 -3 30 -5 42 -5 15 -1 41 -30 94 -103 40 -57 75 -105 78 -108 3
-3 22 -27 41 -55 19 -27 38 -51 42 -53 4 -2 8 -8 8 -13 0 -5 8 -17 18 -27 31
-34 52 -62 52 -71 0 -5 3 -11 8 -13 4 -1 52 -59 106 -128 55 -69 102 -127 105
-130 4 -3 26 -30 51 -60 60 -74 235 -274 325 -371 85 -92 83 -84 37 -127 -126
-118 -237 -218 -307 -277 -44 -37 -81 -72 -83 -76 -2 -5 -10 -9 -17 -9 -7 0
-15 -4 -17 -9 -3 -8 -231 -183 -288 -221 -12 -8 -29 -22 -38 -30 -9 -8 -17
-13 -18 -10 -1 3 -13 -5 -27 -16 -13 -12 -28 -23 -33 -25 -9 -4 -106 -61 -152
-91 -65 -41 -260 -137 -266 -131 -3 3 -6 1 -6 -5 0 -7 -9 -12 -20 -12 -11 0
-20 -4 -20 -8 0 -5 -6 -9 -12 -10 -7 -1 -70 -21 -139 -45 -69 -24 -141 -47
-160 -50 -19 -3 -45 -8 -58 -11 -23 -5 -146 -18 -166 -18 -81 3 -169 12 -205
22 -25 7 -49 13 -55 14 -21 4 -135 61 -135 68 0 5 -6 8 -14 8 -24 0 -159 139
-187 192 -6 12 -15 25 -20 28 -22 15 -121 265 -134 341 -3 18 -7 35 -9 38 -2
3 -7 26 -10 51 -3 25 -9 56 -12 70 -3 14 -7 44 -7 67 -1 24 -4 43 -7 43 -13 0
-17 382 -6 550 5 63 9 127 10 143 0 15 3 27 6 27 3 0 5 19 6 43 1 40 9 108 18
152 2 11 7 40 10 65 3 25 8 54 10 65 2 11 9 53 16 93 7 39 18 72 24 72 8 0 8
2 0 8 -7 5 2 63 32 187 23 99 42 182 42 185 -1 16 5 19 32 15 16 -2 33 -6 37
-8z m5409 -22 c1 -9 18 -84 37 -168 33 -143 59 -267 72 -347 3 -19 7 -44 9
-55 2 -11 7 -40 10 -65 3 -25 8 -54 10 -65 2 -11 7 -51 11 -90 4 -38 9 -81 11
-95 29 -176 22 -642 -13 -840 -2 -14 -6 -34 -8 -45 -2 -11 -4 -20 -5 -20 -2 0
-5 -16 -14 -65 -9 -51 -59 -187 -96 -261 -63 -127 -126 -207 -220 -277 -19
-15 -37 -29 -40 -32 -12 -13 -149 -69 -185 -75 -22 -4 -51 -9 -65 -12 -59 -11
-263 -4 -330 12 -14 3 -36 8 -50 11 -37 7 -210 63 -245 79 -16 7 -50 21 -75
31 -187 73 -567 309 -789 490 -209 169 -324 270 -463 404 l-67 65 67 70 c37
39 99 106 137 150 39 44 72 82 75 85 3 3 30 34 60 70 30 36 60 70 65 76 6 6
22 26 37 45 14 19 36 45 48 59 12 14 34 40 48 59 15 18 34 41 42 51 8 10 24
31 35 46 11 15 25 32 30 38 6 6 53 67 104 136 51 69 100 131 109 138 10 7 16
15 14 18 -3 5 2 12 74 112 36 48 52 62 72 63 15 0 36 2 47 4 11 2 47 7 80 10
33 4 78 8 100 11 64 6 138 15 166 20 14 2 52 6 85 9 32 3 66 8 74 10 20 5 96
16 141 20 20 2 45 5 55 8 21 6 84 17 124 22 14 1 39 5 55 9 17 3 41 8 55 11
14 3 36 7 50 10 27 5 83 15 115 21 11 1 31 5 45 8 14 3 41 9 60 13 47 9 50 10
53 13 1 1 16 3 32 6 17 2 53 10 80 17 51 14 67 10 71 -18z m-3261 -251 c316
-13 1156 -6 1260 10 34 6 36 -4 8 -42 -16 -20 -30 -39 -33 -42 -3 -3 -32 -41
-65 -85 -33 -44 -66 -86 -73 -94 -8 -8 -31 -37 -52 -65 -21 -28 -50 -64 -64
-81 -14 -16 -38 -45 -53 -64 -16 -18 -38 -44 -50 -58 -11 -13 -35 -41 -53 -63
-36 -44 -41 -50 -130 -151 -36 -40 -91 -100 -122 -133 l-57 -59 -53 59 c-29
32 -66 72 -83 89 -16 17 -47 51 -67 76 -33 39 -83 97 -121 139 -7 8 -33 40
-58 70 -24 30 -46 57 -50 60 -3 3 -32 39 -65 80 -79 99 -76 96 -133 170 -28
36 -54 70 -59 75 -43 55 -82 109 -82 115 0 4 19 6 43 4 23 -2 119 -6 212 -10z"/>
<path d="M5244 6211 c-2 -3 -10 -6 -17 -7 -59 -10 -86 -18 -147 -40 -38 -15
-70 -31 -70 -36 0 -5 -4 -7 -8 -4 -7 4 -49 -20 -122 -71 -14 -10 -55 -47 -91
-83 -266 -262 -328 -651 -158 -991 71 -143 200 -272 360 -361 58 -33 188 -80
199 -73 5 3 12 0 15 -6 4 -5 13 -8 21 -5 8 3 14 2 14 -2 0 -4 17 -7 38 -6 20
0 41 -2 46 -4 12 -7 70 -7 82 -1 5 3 20 4 34 3 30 -3 174 21 192 32 5 3 19 7
31 10 22 3 139 59 182 86 61 39 145 115 207 187 64 76 142 234 164 336 25 110
24 287 -1 390 -13 54 -48 149 -66 182 -11 18 -28 50 -40 71 -50 88 -153 195
-253 261 -63 41 -180 98 -188 90 -2 -1 -13 3 -26 10 -25 13 -40 17 -117 31
-51 9 -272 9 -281 1z m208 -337 c69 -9 190 -51 208 -73 3 -3 21 -17 40 -30 66
-44 153 -171 175 -256 5 -16 10 -37 12 -45 2 -8 5 -50 7 -92 2 -60 -3 -96 -22
-155 -13 -43 -29 -85 -36 -93 -7 -8 -18 -27 -26 -42 -21 -44 -108 -124 -175
-163 -93 -54 -249 -78 -350 -54 -22 5 -47 11 -56 13 -17 5 -70 29 -112 52 -48
26 -152 138 -178 190 -13 27 -24 51 -24 54 0 3 -4 11 -8 17 -23 36 -36 180
-24 258 34 215 235 405 444 420 30 2 57 6 60 9 3 3 9 3 14 1 4 -3 27 -8 51
-11z"/>
</g>
</svg>
